<svg xmlns="http://www.w3.org/2000/svg" xmlns:xlink="http://www.w3.org/1999/xlink"><symbol viewBox="0 0 14 14" id="icon-calendar" xmlns="http://www.w3.org/2000/svg"><g clip-path="url(#aa)"><path d="M11.666 1.75h-.583V.583H9.916V1.75H4.083V.583H2.916V1.75h-.583a1.17 1.17 0 0 0-1.167 1.167v9.333a1.17 1.17 0 0 0 1.167 1.167h9.334a1.17 1.17 0 0 0 1.166-1.167V2.917a1.17 1.17 0 0 0-1.167-1.167Zm0 10.5H2.333V4.667h9.333v7.583Z"/></g><defs><clipPath id="aa"><path d="M0 0h14v14H0z"/></clipPath></defs></symbol><symbol viewBox="0 0 30 30" id="icon-ok" xmlns="http://www.w3.org/2000/svg"><g clip-path="url(#ba)"><path d="M12.853 9.99a2.24 2.24 0 1 0 4.478 0 2.24 2.24 0 0 0-4.478 0Z"/><path fill-rule="evenodd" clip-rule="evenodd" d="M15 30c8.284 0 15-6.716 15-15 0-8.284-6.716-15-15-15C6.716 0 0 6.716 0 15c0 8.284 6.716 15 15 15ZM9.675 9.99a5.417 5.417 0 1 1 10.834 0 5.417 5.417 0 0 1-10.834 0Zm10.866 8.204c-.069.055-1.368 1.082-3.537 1.524l3.274 3.244a1.473 1.473 0 1 1-2.082 2.085l-3.178-3.095-2.886 3.075c-.29.3-.675.45-1.06.45a1.473 1.473 0 0 1-1.06-2.495l3.107-3.247c-2.23-.431-3.583-1.485-3.653-1.541a1.473 1.473 0 0 1 1.843-2.298c.014.01 1.429 1.074 3.71 1.075 2.28-.001 3.666-1.064 3.68-1.075a1.473 1.473 0 0 1 1.842 2.298Z"/></g><defs><clipPath id="ba"><path transform="matrix(-1 0 0 1 30 0)" d="M0 0h30v30H0z"/></clipPath></defs></symbol><symbol viewBox="0 0 20 20" id="icon-search" xmlns="http://www.w3.org/2000/svg"><path d="m19.929 18.25-4.046-3.564a9.222 9.222 0 0 0 1.834-5.56c0-2.44-.925-4.728-2.596-6.452C13.45.949 11.223 0 8.858 0 6.493 0 4.267.952 2.595 2.674.921 4.395 0 6.686 0 9.125c0 2.437.924 4.73 2.595 6.452 1.672 1.725 3.895 2.674 6.263 2.674a8.621 8.621 0 0 0 5.395-1.886l4.046 3.562a.24.24 0 0 0 .171.073.237.237 0 0 0 .172-.073l1.287-1.323a.252.252 0 0 0 .053-.272.25.25 0 0 0-.053-.081Zm-6.394-4.306c-1.252 1.286-2.911 1.995-4.677 1.995-1.765 0-3.425-.709-4.677-1.995a6.882 6.882 0 0 1-1.937-4.819c0-1.819.688-3.531 1.937-4.818 1.252-1.286 2.912-1.995 4.677-1.995 1.766 0 3.428.705 4.677 1.995a6.882 6.882 0 0 1 1.937 4.818 6.877 6.877 0 0 1-1.937 4.819Z"/></symbol><symbol viewBox="0 0 30 30" id="icon-vk" xmlns="http://www.w3.org/2000/svg"><path d="M15 0C6.716 0 0 6.716 0 15c0 8.284 6.716 15 15 15 8.284 0 15-6.716 15-15 0-8.284-6.716-15-15-15Zm7.609 16.622c.699.683 1.439 1.326 2.066 2.08.278.333.54.677.74 1.065.285.553.027 1.159-.467 1.192l-3.073-.001c-.794.066-1.426-.255-1.958-.797-.425-.433-.82-.894-1.229-1.342a2.871 2.871 0 0 0-.553-.492c-.42-.272-.783-.189-1.023.249-.245.445-.3.939-.324 1.434-.033.725-.252.914-.979.948-1.553.073-3.028-.163-4.398-.946-1.208-.69-2.144-1.666-2.959-2.77-1.587-2.152-2.803-4.514-3.895-6.944-.246-.547-.066-.84.538-.85a85.522 85.522 0 0 1 3.009-.002c.408.007.678.24.835.625.542 1.334 1.206 2.603 2.039 3.78.222.313.448.625.77.846.357.245.628.164.796-.233.107-.253.154-.523.177-.794.08-.927.09-1.854-.049-2.777-.086-.578-.41-.951-.987-1.06-.293-.056-.25-.165-.108-.332.248-.29.48-.47.944-.47h3.472c.547.107.67.353.744.904l.003 3.859c-.006.213.107.845.49.985.307.101.51-.145.693-.34.833-.883 1.426-1.926 1.957-3.005.235-.476.437-.969.634-1.462.146-.365.373-.545.785-.539l3.343.004c.099 0 .199.001.296.018.564.097.718.339.544.889-.275.863-.808 1.583-1.329 2.304-.558.772-1.154 1.517-1.707 2.293-.508.709-.468 1.066.163 1.681Z"/></symbol></svg>